<?xml version="1.0" encoding="utf-8"?>
<svg xmlns="http://www.w3.org/2000/svg" viewBox="262.9649 167.178 101.6002 91.198" width="256px" height="229.790236220416px" xmlns:bx="https://boxy-svg.com" preserveAspectRatio="none">
  <defs>
    <clipPath id="clippath0">
      <path d="M -335.7 258.276 C -341.67 257.553 -346.48 252.691 -347.15 246.716 C -348.03 238.784 -341.82 232.042 -334.07 232.042 C -329.27 232.042 -325.06 234.625 -322.76 238.473 C -322.11 239.565 -320.91 240.219 -319.64 240.219 L -319.09 240.219 C -312.84 240.219 -307.77 235.147 -307.77 228.891 L -307.77 218.856 L -307.76 218.856 C -307.77 218.63 -307.8 218.406 -307.8 218.177 C -307.8 216.169 -307.39 214.255 -306.66 212.511 L -336.7 212.511 C -338.02 212.511 -339.25 213.214 -339.89 214.369 C -342.4 218.899 -347.49 221.806 -353.17 221.061 C -359.08 220.286 -363.82 215.448 -364.48 209.524 C -365.37 201.589 -359.16 194.844 -351.4 194.844 C -346.44 194.844 -342.13 197.6 -339.89 201.657 C -339.25 202.81 -338.02 203.511 -336.7 203.511 L -293.46 203.511 C -288.49 203.511 -284.15 199.771 -283.82 194.816 C -283.46 189.381 -287.77 184.844 -293.13 184.844 L -293.77 184.844 C -295.09 184.844 -296.32 185.547 -296.95 186.703 C -299.46 191.232 -304.55 194.139 -310.23 193.394 C -316.14 192.619 -320.88 187.781 -321.55 181.857 C -322.44 173.923 -316.22 167.178 -308.46 167.178 C -303.51 167.178 -299.2 169.933 -296.95 173.99 C -296.31 175.144 -295.09 175.844 -293.77 175.844 L -293.58 175.844 C -283.65 175.844 -275.19 183.549 -274.81 193.469 C -274.42 203.899 -282.79 212.511 -293.13 212.511 C -296.5 212.511 -299.19 215.467 -298.75 218.922 C -298.38 221.779 -295.82 223.843 -292.94 223.843 L -290.83 223.843 C -289.51 223.843 -288.28 223.14 -287.64 221.985 C -285.13 217.455 -280.04 214.548 -274.36 215.293 C -268.45 216.069 -263.71 220.907 -263.05 226.83 C -262.16 234.765 -268.37 241.51 -276.13 241.51 C -281.09 241.51 -285.4 238.754 -287.64 234.697 C -288.28 233.544 -289.51 232.843 -290.83 232.843 L -293.13 232.843 C -295.21 232.843 -297.18 232.404 -298.97 231.623 C -300.31 241.542 -308.81 249.219 -319.09 249.219 C -320.46 249.219 -321.72 249.975 -322.34 251.191 C -324.52 255.452 -328.96 258.376 -334.07 258.376 C -334.6 258.376 -335.15 258.343 -335.7 258.276 M -338.23 245.209 C -338.23 247.507 -336.36 249.376 -334.07 249.376 C -331.77 249.376 -329.9 247.507 -329.9 245.209 C -329.9 242.912 -331.77 241.042 -334.07 241.042 C -336.36 241.042 -338.23 242.912 -338.23 245.209 M -280.3 228.343 C -280.3 230.641 -278.43 232.51 -276.13 232.51 C -273.83 232.51 -271.96 230.641 -271.96 228.343 C -271.96 226.047 -273.83 224.177 -276.13 224.177 C -278.43 224.177 -280.3 226.047 -280.3 228.343 M -355.57 208.011 C -355.57 210.308 -353.7 212.178 -351.4 212.178 C -349.1 212.178 -347.23 210.308 -347.23 208.011 C -347.23 205.713 -349.1 203.844 -351.4 203.844 C -353.7 203.844 -355.57 205.713 -355.57 208.011 M -312.63 180.344 C -312.63 182.641 -310.76 184.511 -308.46 184.511 C -306.17 184.511 -304.3 182.641 -304.3 180.344 C -304.3 178.046 -306.17 176.178 -308.46 176.178 C -310.76 176.178 -312.63 178.046 -312.63 180.344" style="fill: none; clip-rule: nonzero;"/>
    </clipPath>
    <linearGradient bx:pinned="true" id="color-0">
      <stop style="stop-color: rgb(168, 24, 24);" offset="0"/>
      <stop style="stop-color: rgb(255, 118, 142);" offset="1"/>
    </linearGradient>
    <linearGradient bx:pinned="true" id="color-1">
      <stop style="stop-color: #ff4b1f;" offset="0"/>
      <stop style="stop-color: #ff9068;" offset="1"/>
    </linearGradient>
    <linearGradient bx:pinned="true" id="color-2">
      <stop style="stop-color: #f857a6;" offset="0"/>
      <stop style="stop-color: #ff5858;" offset="1"/>
    </linearGradient>
    <linearGradient bx:pinned="true" id="color-3">
      <stop style="stop-color: #e52d27;" offset="0"/>
      <stop style="stop-color: #b31217;" offset="1"/>
    </linearGradient>
    <linearGradient bx:pinned="true" id="color-4">
      <stop style="stop-color: #f2709c;" offset="0"/>
      <stop style="stop-color: #ff9472;" offset="1"/>
    </linearGradient>
    <linearGradient bx:pinned="true" id="color-5">
      <stop style="stop-color: #ff0084;" offset="0"/>
      <stop style="stop-color: #33001b;" offset="1"/>
    </linearGradient>
    <linearGradient bx:pinned="true" id="color-6">
      <stop style="stop-color: #c02425;" offset="0"/>
      <stop style="stop-color: #f0cb35;" offset="1"/>
    </linearGradient>
    <linearGradient bx:pinned="true" id="color-7">
      <stop style="stop-color: #ff0099;" offset="0"/>
      <stop style="stop-color: #493240;" offset="1"/>
    </linearGradient>
    <linearGradient gradientUnits="userSpaceOnUse" x1="-313.765" y1="167.178" x2="-313.765" y2="258.376" id="color-0-0" href="#color-0" gradientTransform="matrix(-0.999999, 0.000688, -0.000615, -0.890426, -628.505718, 399.608371)"/>
  </defs>
  <path d="M -1004.3 -74.486 H -254.386 V 425.49 H -1004.3 V -74.486 Z" style="clip-path: url(&quot;#clippath0&quot;); stroke: rgb(186, 218, 85); stroke-width: 0px; fill: url(&quot;#color-0-0&quot;);" transform="matrix(-1.0000000000000002, 0, 0, 1, 0, 0)" id="object-0"/>
</svg>